<mxfile host="app.diagrams.net" modified="2023-11-14T13:52:05.119Z" agent="Mozilla/5.0 (Windows NT 10.0; Win64; x64) AppleWebKit/537.36 (KHTML, like Gecko) Chrome/119.0.0.0 Safari/537.36" etag="bh2szq4sD8FIxtFUlVRd" version="22.1.0" type="device">
  <diagram name="Page-1" id="xe2dITIoJmqR0y6jcv9a">
    <mxGraphModel dx="2524" dy="768" grid="1" gridSize="10" guides="1" tooltips="1" connect="1" arrows="1" fold="1" page="1" pageScale="1" pageWidth="850" pageHeight="1100" math="0" shadow="0">
      <root>
        <mxCell id="0" />
        <mxCell id="1" parent="0" />
        <mxCell id="Jx5n-4hsCiuhTFaqkO28-55" value="" style="group" parent="1" vertex="1" connectable="0">
          <mxGeometry x="70" y="75" width="665" height="995" as="geometry" />
        </mxCell>
        <mxCell id="Jx5n-4hsCiuhTFaqkO28-53" value="" style="group" parent="Jx5n-4hsCiuhTFaqkO28-55" vertex="1" connectable="0">
          <mxGeometry x="-210" y="-65" width="210" height="355" as="geometry" />
        </mxCell>
        <mxCell id="Jx5n-4hsCiuhTFaqkO28-49" value="&lt;font style=&quot;font-size: 14px;&quot;&gt;Struct Perishable &lt;br&gt;itemName&lt;br&gt;productBarcode&lt;br&gt;tax&lt;/font&gt;" style="text;html=1;strokeColor=none;fillColor=none;align=center;verticalAlign=middle;whiteSpace=wrap;rounded=0;" parent="Jx5n-4hsCiuhTFaqkO28-53" vertex="1">
          <mxGeometry x="40" width="130" height="120" as="geometry" />
        </mxCell>
        <mxCell id="Jx5n-4hsCiuhTFaqkO28-50" value="&lt;font style=&quot;font-size: 14px;&quot;&gt;Struct Non Perishable&lt;br&gt;itemName&lt;br style=&quot;border-color: var(--border-color);&quot;&gt;productPrice&lt;br&gt;productBarcode&lt;br&gt;tax&lt;br&gt;&lt;/font&gt;" style="text;html=1;strokeColor=none;fillColor=none;align=center;verticalAlign=middle;whiteSpace=wrap;rounded=0;" parent="Jx5n-4hsCiuhTFaqkO28-53" vertex="1">
          <mxGeometry x="35" y="120" width="140" height="100" as="geometry" />
        </mxCell>
        <mxCell id="Jx5n-4hsCiuhTFaqkO28-52" value="&lt;font style=&quot;font-size: 14px;&quot;&gt;Receipt Structure&lt;br&gt;perishableItemName&lt;br&gt;nonPerishableItemName&lt;br&gt;nonPerishableItemPrice&lt;br&gt;perishableItemPrice&lt;br&gt;total&lt;/font&gt;" style="text;html=1;strokeColor=none;fillColor=none;align=center;verticalAlign=middle;whiteSpace=wrap;rounded=0;" parent="Jx5n-4hsCiuhTFaqkO28-53" vertex="1">
          <mxGeometry y="225" width="210" height="130" as="geometry" />
        </mxCell>
        <mxCell id="p7JoVKrDlgdIuOftzYYz-1" value="START" style="ellipse;whiteSpace=wrap;html=1;container=0;" parent="Jx5n-4hsCiuhTFaqkO28-55" vertex="1">
          <mxGeometry x="120" y="55" width="120" height="80" as="geometry" />
        </mxCell>
        <mxCell id="Jx5n-4hsCiuhTFaqkO28-1" value="Prompt Costumer to Scan Item" style="shape=manualInput;whiteSpace=wrap;html=1;container=0;" parent="Jx5n-4hsCiuhTFaqkO28-55" vertex="1">
          <mxGeometry x="110" y="175" width="140" height="100" as="geometry" />
        </mxCell>
        <mxCell id="Jx5n-4hsCiuhTFaqkO28-2" value="Scan Item" style="rounded=1;whiteSpace=wrap;html=1;container=0;" parent="Jx5n-4hsCiuhTFaqkO28-55" vertex="1">
          <mxGeometry x="120" y="325" width="120" height="60" as="geometry" />
        </mxCell>
        <mxCell id="Jx5n-4hsCiuhTFaqkO28-4" style="edgeStyle=orthogonalEdgeStyle;rounded=0;orthogonalLoop=1;jettySize=auto;html=1;entryX=0.5;entryY=0;entryDx=0;entryDy=0;" parent="Jx5n-4hsCiuhTFaqkO28-55" source="Jx5n-4hsCiuhTFaqkO28-1" target="Jx5n-4hsCiuhTFaqkO28-2" edge="1">
          <mxGeometry relative="1" as="geometry" />
        </mxCell>
        <mxCell id="Jx5n-4hsCiuhTFaqkO28-3" style="edgeStyle=orthogonalEdgeStyle;rounded=0;orthogonalLoop=1;jettySize=auto;html=1;entryX=0.5;entryY=0.145;entryDx=0;entryDy=0;entryPerimeter=0;" parent="Jx5n-4hsCiuhTFaqkO28-55" source="p7JoVKrDlgdIuOftzYYz-1" target="Jx5n-4hsCiuhTFaqkO28-1" edge="1">
          <mxGeometry relative="1" as="geometry" />
        </mxCell>
        <mxCell id="Jx5n-4hsCiuhTFaqkO28-5" value="Is Barcode Valid?" style="rhombus;whiteSpace=wrap;html=1;container=0;" parent="Jx5n-4hsCiuhTFaqkO28-55" vertex="1">
          <mxGeometry x="135" y="415" width="90" height="90" as="geometry" />
        </mxCell>
        <mxCell id="Jx5n-4hsCiuhTFaqkO28-6" style="edgeStyle=orthogonalEdgeStyle;rounded=0;orthogonalLoop=1;jettySize=auto;html=1;entryX=0.5;entryY=0;entryDx=0;entryDy=0;" parent="Jx5n-4hsCiuhTFaqkO28-55" source="Jx5n-4hsCiuhTFaqkO28-2" target="Jx5n-4hsCiuhTFaqkO28-5" edge="1">
          <mxGeometry relative="1" as="geometry" />
        </mxCell>
        <mxCell id="Jx5n-4hsCiuhTFaqkO28-72" style="edgeStyle=orthogonalEdgeStyle;rounded=0;orthogonalLoop=1;jettySize=auto;html=1;entryX=0;entryY=0.5;entryDx=0;entryDy=0;exitX=0.506;exitY=0.127;exitDx=0;exitDy=0;exitPerimeter=0;" parent="Jx5n-4hsCiuhTFaqkO28-55" source="Jx5n-4hsCiuhTFaqkO28-7" target="Jx5n-4hsCiuhTFaqkO28-2" edge="1">
          <mxGeometry relative="1" as="geometry">
            <Array as="points">
              <mxPoint x="26" y="355" />
            </Array>
          </mxGeometry>
        </mxCell>
        <mxCell id="Jx5n-4hsCiuhTFaqkO28-7" value="Prompt to Retry Scanning or Manual Entry or Remove Item" style="shape=manualInput;whiteSpace=wrap;html=1;container=0;" parent="Jx5n-4hsCiuhTFaqkO28-55" vertex="1">
          <mxGeometry x="-50" y="410" width="140" height="100" as="geometry" />
        </mxCell>
        <mxCell id="Jx5n-4hsCiuhTFaqkO28-71" style="edgeStyle=orthogonalEdgeStyle;rounded=0;orthogonalLoop=1;jettySize=auto;html=1;entryX=1;entryY=0.5;entryDx=0;entryDy=0;" parent="Jx5n-4hsCiuhTFaqkO28-55" source="Jx5n-4hsCiuhTFaqkO28-5" target="Jx5n-4hsCiuhTFaqkO28-7" edge="1">
          <mxGeometry relative="1" as="geometry" />
        </mxCell>
        <mxCell id="Jx5n-4hsCiuhTFaqkO28-9" value="No" style="text;html=1;align=center;verticalAlign=middle;resizable=0;points=[];autosize=1;strokeColor=none;fillColor=none;container=0;" parent="Jx5n-4hsCiuhTFaqkO28-55" vertex="1">
          <mxGeometry x="90" y="460" width="40" height="30" as="geometry" />
        </mxCell>
        <mxCell id="Jx5n-4hsCiuhTFaqkO28-15" value="Lookup Product Info via Black Box Database." style="rounded=1;whiteSpace=wrap;html=1;container=0;" parent="Jx5n-4hsCiuhTFaqkO28-55" vertex="1">
          <mxGeometry x="220" y="565" width="120" height="60" as="geometry" />
        </mxCell>
        <mxCell id="Jx5n-4hsCiuhTFaqkO28-16" style="edgeStyle=orthogonalEdgeStyle;rounded=0;orthogonalLoop=1;jettySize=auto;html=1;entryX=0.5;entryY=0;entryDx=0;entryDy=0;" parent="Jx5n-4hsCiuhTFaqkO28-55" source="Jx5n-4hsCiuhTFaqkO28-5" target="Jx5n-4hsCiuhTFaqkO28-15" edge="1">
          <mxGeometry relative="1" as="geometry" />
        </mxCell>
        <mxCell id="Jx5n-4hsCiuhTFaqkO28-17" value="Is Product Found in Database?" style="rhombus;whiteSpace=wrap;html=1;container=0;" parent="Jx5n-4hsCiuhTFaqkO28-55" vertex="1">
          <mxGeometry x="220" y="675" width="120" height="120" as="geometry" />
        </mxCell>
        <mxCell id="Jx5n-4hsCiuhTFaqkO28-18" style="edgeStyle=orthogonalEdgeStyle;rounded=0;orthogonalLoop=1;jettySize=auto;html=1;entryX=0.5;entryY=0;entryDx=0;entryDy=0;" parent="Jx5n-4hsCiuhTFaqkO28-55" source="Jx5n-4hsCiuhTFaqkO28-15" target="Jx5n-4hsCiuhTFaqkO28-17" edge="1">
          <mxGeometry relative="1" as="geometry" />
        </mxCell>
        <mxCell id="Jx5n-4hsCiuhTFaqkO28-21" value="No" style="text;html=1;align=center;verticalAlign=middle;resizable=0;points=[];autosize=1;strokeColor=none;fillColor=none;container=0;" parent="Jx5n-4hsCiuhTFaqkO28-55" vertex="1">
          <mxGeometry x="180" y="705" width="40" height="30" as="geometry" />
        </mxCell>
        <mxCell id="Jx5n-4hsCiuhTFaqkO28-22" value="Yes" style="text;html=1;align=center;verticalAlign=middle;resizable=0;points=[];autosize=1;strokeColor=none;fillColor=none;container=0;" parent="Jx5n-4hsCiuhTFaqkO28-55" vertex="1">
          <mxGeometry x="240" y="505" width="40" height="30" as="geometry" />
        </mxCell>
        <mxCell id="Jx5n-4hsCiuhTFaqkO28-23" value="Product Lookup Success." style="rounded=1;whiteSpace=wrap;html=1;container=0;" parent="Jx5n-4hsCiuhTFaqkO28-55" vertex="1">
          <mxGeometry x="220" y="825" width="120" height="60" as="geometry" />
        </mxCell>
        <mxCell id="Jx5n-4hsCiuhTFaqkO28-24" style="edgeStyle=orthogonalEdgeStyle;rounded=0;orthogonalLoop=1;jettySize=auto;html=1;entryX=0.5;entryY=0;entryDx=0;entryDy=0;" parent="Jx5n-4hsCiuhTFaqkO28-55" source="Jx5n-4hsCiuhTFaqkO28-17" target="Jx5n-4hsCiuhTFaqkO28-23" edge="1">
          <mxGeometry relative="1" as="geometry" />
        </mxCell>
        <mxCell id="Jx5n-4hsCiuhTFaqkO28-25" value="Yes" style="text;html=1;align=center;verticalAlign=middle;resizable=0;points=[];autosize=1;strokeColor=none;fillColor=none;container=0;" parent="Jx5n-4hsCiuhTFaqkO28-55" vertex="1">
          <mxGeometry x="280" y="795" width="40" height="30" as="geometry" />
        </mxCell>
        <mxCell id="Jx5n-4hsCiuhTFaqkO28-26" value="Confirm Item and Add to Basket." style="shape=manualInput;whiteSpace=wrap;html=1;container=0;" parent="Jx5n-4hsCiuhTFaqkO28-55" vertex="1">
          <mxGeometry x="390" y="687.5" width="100" height="95" as="geometry" />
        </mxCell>
        <mxCell id="Jx5n-4hsCiuhTFaqkO28-29" value="Update Subtotal" style="rounded=1;whiteSpace=wrap;html=1;container=0;" parent="Jx5n-4hsCiuhTFaqkO28-55" vertex="1">
          <mxGeometry x="380" y="815" width="120" height="60" as="geometry" />
        </mxCell>
        <mxCell id="Jx5n-4hsCiuhTFaqkO28-30" style="edgeStyle=orthogonalEdgeStyle;rounded=0;orthogonalLoop=1;jettySize=auto;html=1;entryX=0.5;entryY=0;entryDx=0;entryDy=0;" parent="Jx5n-4hsCiuhTFaqkO28-55" source="Jx5n-4hsCiuhTFaqkO28-26" target="Jx5n-4hsCiuhTFaqkO28-29" edge="1">
          <mxGeometry relative="1" as="geometry" />
        </mxCell>
        <mxCell id="Jx5n-4hsCiuhTFaqkO28-34" value="Finalize Basket" style="rounded=1;whiteSpace=wrap;html=1;container=0;" parent="Jx5n-4hsCiuhTFaqkO28-55" vertex="1">
          <mxGeometry x="545" y="925" width="120" height="60" as="geometry" />
        </mxCell>
        <mxCell id="Jx5n-4hsCiuhTFaqkO28-35" value="Proceed to Payment." style="rounded=1;whiteSpace=wrap;html=1;container=0;" parent="Jx5n-4hsCiuhTFaqkO28-55" vertex="1">
          <mxGeometry x="370" y="925" width="120" height="60" as="geometry" />
        </mxCell>
        <mxCell id="Jx5n-4hsCiuhTFaqkO28-38" style="edgeStyle=orthogonalEdgeStyle;rounded=0;orthogonalLoop=1;jettySize=auto;html=1;entryX=1;entryY=0.5;entryDx=0;entryDy=0;" parent="Jx5n-4hsCiuhTFaqkO28-55" source="Jx5n-4hsCiuhTFaqkO28-34" target="Jx5n-4hsCiuhTFaqkO28-35" edge="1">
          <mxGeometry relative="1" as="geometry" />
        </mxCell>
        <mxCell id="Jx5n-4hsCiuhTFaqkO28-36" value="End Checkout Process." style="rounded=1;whiteSpace=wrap;html=1;container=0;" parent="Jx5n-4hsCiuhTFaqkO28-55" vertex="1">
          <mxGeometry x="190" y="925" width="120" height="60" as="geometry" />
        </mxCell>
        <mxCell id="Jx5n-4hsCiuhTFaqkO28-39" style="edgeStyle=orthogonalEdgeStyle;rounded=0;orthogonalLoop=1;jettySize=auto;html=1;entryX=1;entryY=0.5;entryDx=0;entryDy=0;" parent="Jx5n-4hsCiuhTFaqkO28-55" source="Jx5n-4hsCiuhTFaqkO28-35" target="Jx5n-4hsCiuhTFaqkO28-36" edge="1">
          <mxGeometry relative="1" as="geometry" />
        </mxCell>
        <mxCell id="Jx5n-4hsCiuhTFaqkO28-40" value="Yes" style="text;html=1;align=center;verticalAlign=middle;resizable=0;points=[];autosize=1;strokeColor=none;fillColor=none;container=0;" parent="Jx5n-4hsCiuhTFaqkO28-55" vertex="1">
          <mxGeometry x="600" y="755" width="40" height="30" as="geometry" />
        </mxCell>
        <mxCell id="Jx5n-4hsCiuhTFaqkO28-43" style="edgeStyle=orthogonalEdgeStyle;rounded=0;orthogonalLoop=1;jettySize=auto;html=1;entryX=0.5;entryY=0;entryDx=0;entryDy=0;" parent="Jx5n-4hsCiuhTFaqkO28-55" source="Jx5n-4hsCiuhTFaqkO28-41" target="Jx5n-4hsCiuhTFaqkO28-34" edge="1">
          <mxGeometry relative="1" as="geometry" />
        </mxCell>
        <mxCell id="Jx5n-4hsCiuhTFaqkO28-44" style="edgeStyle=orthogonalEdgeStyle;rounded=0;orthogonalLoop=1;jettySize=auto;html=1;entryX=1;entryY=0.5;entryDx=0;entryDy=0;" parent="Jx5n-4hsCiuhTFaqkO28-55" source="Jx5n-4hsCiuhTFaqkO28-41" target="Jx5n-4hsCiuhTFaqkO28-1" edge="1">
          <mxGeometry relative="1" as="geometry">
            <Array as="points">
              <mxPoint x="605" y="225" />
            </Array>
          </mxGeometry>
        </mxCell>
        <mxCell id="Jx5n-4hsCiuhTFaqkO28-41" value="Are There More Items?" style="rhombus;whiteSpace=wrap;html=1;container=0;" parent="Jx5n-4hsCiuhTFaqkO28-55" vertex="1">
          <mxGeometry x="545" y="785" width="120" height="120" as="geometry" />
        </mxCell>
        <mxCell id="Jx5n-4hsCiuhTFaqkO28-42" style="edgeStyle=orthogonalEdgeStyle;rounded=0;orthogonalLoop=1;jettySize=auto;html=1;entryX=0;entryY=0.5;entryDx=0;entryDy=0;" parent="Jx5n-4hsCiuhTFaqkO28-55" source="Jx5n-4hsCiuhTFaqkO28-29" target="Jx5n-4hsCiuhTFaqkO28-41" edge="1">
          <mxGeometry relative="1" as="geometry" />
        </mxCell>
        <mxCell id="Jx5n-4hsCiuhTFaqkO28-45" value="No" style="text;html=1;align=center;verticalAlign=middle;resizable=0;points=[];autosize=1;strokeColor=none;fillColor=none;container=0;" parent="Jx5n-4hsCiuhTFaqkO28-55" vertex="1">
          <mxGeometry x="600" y="895" width="40" height="30" as="geometry" />
        </mxCell>
        <mxCell id="Jx5n-4hsCiuhTFaqkO28-46" value="END" style="ellipse;whiteSpace=wrap;html=1;container=0;" parent="Jx5n-4hsCiuhTFaqkO28-55" vertex="1">
          <mxGeometry x="30" y="915" width="120" height="80" as="geometry" />
        </mxCell>
        <mxCell id="Jx5n-4hsCiuhTFaqkO28-47" style="edgeStyle=orthogonalEdgeStyle;rounded=0;orthogonalLoop=1;jettySize=auto;html=1;entryX=1;entryY=0.5;entryDx=0;entryDy=0;" parent="Jx5n-4hsCiuhTFaqkO28-55" source="Jx5n-4hsCiuhTFaqkO28-36" target="Jx5n-4hsCiuhTFaqkO28-46" edge="1">
          <mxGeometry relative="1" as="geometry" />
        </mxCell>
        <mxCell id="Jx5n-4hsCiuhTFaqkO28-54" value="&lt;font style=&quot;font-size: 18px;&quot;&gt;Non Perishable Subprocess&lt;/font&gt;" style="text;html=1;align=center;verticalAlign=middle;resizable=0;points=[];autosize=1;strokeColor=none;fillColor=none;container=0;" parent="Jx5n-4hsCiuhTFaqkO28-55" vertex="1">
          <mxGeometry x="55" width="250" height="40" as="geometry" />
        </mxCell>
        <mxCell id="Jx5n-4hsCiuhTFaqkO28-56" value="Display Product Info" style="rounded=1;whiteSpace=wrap;html=1;container=0;" parent="Jx5n-4hsCiuhTFaqkO28-55" vertex="1">
          <mxGeometry x="380" y="445" width="120" height="60" as="geometry" />
        </mxCell>
        <mxCell id="Jx5n-4hsCiuhTFaqkO28-57" style="edgeStyle=orthogonalEdgeStyle;rounded=0;orthogonalLoop=1;jettySize=auto;html=1;entryX=0;entryY=0.5;entryDx=0;entryDy=0;" parent="Jx5n-4hsCiuhTFaqkO28-55" source="Jx5n-4hsCiuhTFaqkO28-23" target="Jx5n-4hsCiuhTFaqkO28-56" edge="1">
          <mxGeometry relative="1" as="geometry" />
        </mxCell>
        <mxCell id="Jx5n-4hsCiuhTFaqkO28-59" value="Calculate Tax." style="rounded=1;whiteSpace=wrap;html=1;container=0;" parent="Jx5n-4hsCiuhTFaqkO28-55" vertex="1">
          <mxGeometry x="385" y="535" width="110" height="45" as="geometry" />
        </mxCell>
        <mxCell id="Jx5n-4hsCiuhTFaqkO28-63" style="edgeStyle=orthogonalEdgeStyle;rounded=0;orthogonalLoop=1;jettySize=auto;html=1;entryX=0.5;entryY=0;entryDx=0;entryDy=0;" parent="Jx5n-4hsCiuhTFaqkO28-55" source="Jx5n-4hsCiuhTFaqkO28-56" target="Jx5n-4hsCiuhTFaqkO28-59" edge="1">
          <mxGeometry relative="1" as="geometry" />
        </mxCell>
        <mxCell id="Jx5n-4hsCiuhTFaqkO28-64" value="Add Tax to Item Price," style="rounded=1;whiteSpace=wrap;html=1;container=0;" parent="Jx5n-4hsCiuhTFaqkO28-55" vertex="1">
          <mxGeometry x="375" y="605" width="130" height="45" as="geometry" />
        </mxCell>
        <mxCell id="Jx5n-4hsCiuhTFaqkO28-65" style="edgeStyle=orthogonalEdgeStyle;rounded=0;orthogonalLoop=1;jettySize=auto;html=1;entryX=0.5;entryY=0;entryDx=0;entryDy=0;" parent="Jx5n-4hsCiuhTFaqkO28-55" source="Jx5n-4hsCiuhTFaqkO28-59" target="Jx5n-4hsCiuhTFaqkO28-64" edge="1">
          <mxGeometry relative="1" as="geometry" />
        </mxCell>
        <mxCell id="Jx5n-4hsCiuhTFaqkO28-66" style="edgeStyle=orthogonalEdgeStyle;rounded=0;orthogonalLoop=1;jettySize=auto;html=1;entryX=0.51;entryY=0.167;entryDx=0;entryDy=0;entryPerimeter=0;" parent="Jx5n-4hsCiuhTFaqkO28-55" source="Jx5n-4hsCiuhTFaqkO28-64" target="Jx5n-4hsCiuhTFaqkO28-26" edge="1">
          <mxGeometry relative="1" as="geometry">
            <Array as="points">
              <mxPoint x="440" y="703" />
            </Array>
          </mxGeometry>
        </mxCell>
        <mxCell id="Jx5n-4hsCiuhTFaqkO28-93" style="edgeStyle=orthogonalEdgeStyle;rounded=0;orthogonalLoop=1;jettySize=auto;html=1;entryX=0;entryY=0.5;entryDx=0;entryDy=0;" parent="Jx5n-4hsCiuhTFaqkO28-55" source="Jx5n-4hsCiuhTFaqkO28-67" target="Jx5n-4hsCiuhTFaqkO28-2" edge="1">
          <mxGeometry relative="1" as="geometry">
            <Array as="points">
              <mxPoint x="-200" y="745" />
              <mxPoint x="-200" y="355" />
            </Array>
          </mxGeometry>
        </mxCell>
        <mxCell id="Jx5n-4hsCiuhTFaqkO28-67" value="Prompt to Check Item or Manual Entry or Remove Item" style="shape=manualInput;whiteSpace=wrap;html=1;container=0;" parent="Jx5n-4hsCiuhTFaqkO28-55" vertex="1">
          <mxGeometry x="15" y="685" width="160" height="100" as="geometry" />
        </mxCell>
        <mxCell id="Jx5n-4hsCiuhTFaqkO28-68" style="edgeStyle=orthogonalEdgeStyle;rounded=0;orthogonalLoop=1;jettySize=auto;html=1;entryX=1;entryY=0.5;entryDx=0;entryDy=0;" parent="Jx5n-4hsCiuhTFaqkO28-55" source="Jx5n-4hsCiuhTFaqkO28-17" target="Jx5n-4hsCiuhTFaqkO28-67" edge="1">
          <mxGeometry relative="1" as="geometry" />
        </mxCell>
        <mxCell id="Jx5n-4hsCiuhTFaqkO28-73" value="Retry" style="text;html=1;align=center;verticalAlign=middle;resizable=0;points=[];autosize=1;strokeColor=none;fillColor=none;container=0;" parent="Jx5n-4hsCiuhTFaqkO28-55" vertex="1">
          <mxGeometry x="20" y="355" width="50" height="30" as="geometry" />
        </mxCell>
        <mxCell id="Jx5n-4hsCiuhTFaqkO28-80" style="edgeStyle=orthogonalEdgeStyle;rounded=0;orthogonalLoop=1;jettySize=auto;html=1;" parent="Jx5n-4hsCiuhTFaqkO28-55" source="Jx5n-4hsCiuhTFaqkO28-78" edge="1">
          <mxGeometry relative="1" as="geometry">
            <mxPoint x="220" y="595" as="targetPoint" />
          </mxGeometry>
        </mxCell>
        <mxCell id="Jx5n-4hsCiuhTFaqkO28-78" value="Manual Barcode Entry" style="rounded=1;whiteSpace=wrap;html=1;container=0;" parent="Jx5n-4hsCiuhTFaqkO28-55" vertex="1">
          <mxGeometry x="20" y="566.25" width="120" height="57.5" as="geometry" />
        </mxCell>
        <mxCell id="Jx5n-4hsCiuhTFaqkO28-91" value="Manual Entry" style="text;html=1;align=center;verticalAlign=middle;resizable=0;points=[];autosize=1;strokeColor=none;fillColor=none;container=0;" parent="Jx5n-4hsCiuhTFaqkO28-55" vertex="1">
          <mxGeometry x="-10" y="645" width="90" height="30" as="geometry" />
        </mxCell>
        <mxCell id="Jx5n-4hsCiuhTFaqkO28-79" style="edgeStyle=orthogonalEdgeStyle;rounded=0;orthogonalLoop=1;jettySize=auto;html=1;entryX=0;entryY=0.5;entryDx=0;entryDy=0;" parent="1" source="Jx5n-4hsCiuhTFaqkO28-76" target="Jx5n-4hsCiuhTFaqkO28-78" edge="1">
          <mxGeometry relative="1" as="geometry" />
        </mxCell>
        <mxCell id="Jx5n-4hsCiuhTFaqkO28-83" style="edgeStyle=orthogonalEdgeStyle;rounded=0;orthogonalLoop=1;jettySize=auto;html=1;entryX=0.5;entryY=0;entryDx=0;entryDy=0;" parent="1" source="Jx5n-4hsCiuhTFaqkO28-76" target="Jx5n-4hsCiuhTFaqkO28-82" edge="1">
          <mxGeometry relative="1" as="geometry" />
        </mxCell>
        <mxCell id="Jx5n-4hsCiuhTFaqkO28-76" value="Can Customer Provide Manual Entry?" style="rhombus;whiteSpace=wrap;html=1;container=0;" parent="1" vertex="1">
          <mxGeometry x="-80" y="610" width="115" height="120" as="geometry" />
        </mxCell>
        <mxCell id="Jx5n-4hsCiuhTFaqkO28-77" style="edgeStyle=orthogonalEdgeStyle;rounded=0;orthogonalLoop=1;jettySize=auto;html=1;exitX=0.5;exitY=1;exitDx=0;exitDy=0;entryX=0.5;entryY=0;entryDx=0;entryDy=0;" parent="1" source="Jx5n-4hsCiuhTFaqkO28-7" target="Jx5n-4hsCiuhTFaqkO28-76" edge="1">
          <mxGeometry relative="1" as="geometry">
            <Array as="points">
              <mxPoint x="90" y="600" />
              <mxPoint x="-23" y="600" />
            </Array>
          </mxGeometry>
        </mxCell>
        <mxCell id="Jx5n-4hsCiuhTFaqkO28-81" value="Yes" style="text;html=1;align=center;verticalAlign=middle;resizable=0;points=[];autosize=1;strokeColor=none;fillColor=none;container=0;" parent="1" vertex="1">
          <mxGeometry x="40" y="640" width="40" height="30" as="geometry" />
        </mxCell>
        <mxCell id="Jx5n-4hsCiuhTFaqkO28-82" value="Manual Entry Failed." style="rounded=1;whiteSpace=wrap;html=1;container=0;" parent="1" vertex="1">
          <mxGeometry x="-82.5" y="750" width="120" height="50" as="geometry" />
        </mxCell>
        <mxCell id="Jx5n-4hsCiuhTFaqkO28-84" style="edgeStyle=orthogonalEdgeStyle;rounded=0;orthogonalLoop=1;jettySize=auto;html=1;entryX=-0.018;entryY=0.583;entryDx=0;entryDy=0;entryPerimeter=0;exitX=0;exitY=0.5;exitDx=0;exitDy=0;" parent="1" source="Jx5n-4hsCiuhTFaqkO28-82" target="Jx5n-4hsCiuhTFaqkO28-7" edge="1">
          <mxGeometry relative="1" as="geometry">
            <Array as="points">
              <mxPoint x="-110" y="775" />
              <mxPoint x="-110" y="543" />
            </Array>
          </mxGeometry>
        </mxCell>
        <mxCell id="Jx5n-4hsCiuhTFaqkO28-85" value="No" style="text;html=1;align=center;verticalAlign=middle;resizable=0;points=[];autosize=1;strokeColor=none;fillColor=none;container=0;" parent="1" vertex="1">
          <mxGeometry x="-30" y="730" width="40" height="30" as="geometry" />
        </mxCell>
        <mxCell id="Jx5n-4hsCiuhTFaqkO28-86" value="Manual Entry" style="text;html=1;align=center;verticalAlign=middle;resizable=0;points=[];autosize=1;strokeColor=none;fillColor=none;container=0;" parent="1" vertex="1">
          <mxGeometry x="-15" y="598" width="90" height="30" as="geometry" />
        </mxCell>
        <mxCell id="Jx5n-4hsCiuhTFaqkO28-94" value="Check Item and Retry" style="text;html=1;align=center;verticalAlign=middle;resizable=0;points=[];autosize=1;strokeColor=none;fillColor=none;container=0;" parent="1" vertex="1">
          <mxGeometry x="-50" y="818" width="140" height="30" as="geometry" />
        </mxCell>
        <mxCell id="Jx5n-4hsCiuhTFaqkO28-101" style="edgeStyle=orthogonalEdgeStyle;rounded=0;orthogonalLoop=1;jettySize=auto;html=1;entryX=0;entryY=0.5;entryDx=0;entryDy=0;" parent="1" source="Jx5n-4hsCiuhTFaqkO28-95" target="Jx5n-4hsCiuhTFaqkO28-1" edge="1">
          <mxGeometry relative="1" as="geometry">
            <Array as="points">
              <mxPoint x="-280" y="628" />
              <mxPoint x="-280" y="370" />
              <mxPoint x="110" y="370" />
              <mxPoint x="110" y="300" />
            </Array>
          </mxGeometry>
        </mxCell>
        <mxCell id="Jx5n-4hsCiuhTFaqkO28-95" value="Remove Item and Scan Next Item" style="rounded=1;whiteSpace=wrap;html=1;container=0;" parent="1" vertex="1">
          <mxGeometry x="-270" y="598" width="120" height="60" as="geometry" />
        </mxCell>
        <mxCell id="Jx5n-4hsCiuhTFaqkO28-96" style="edgeStyle=orthogonalEdgeStyle;rounded=0;orthogonalLoop=1;jettySize=auto;html=1;entryX=0.5;entryY=1;entryDx=0;entryDy=0;" parent="1" source="Jx5n-4hsCiuhTFaqkO28-67" target="Jx5n-4hsCiuhTFaqkO28-95" edge="1">
          <mxGeometry relative="1" as="geometry">
            <Array as="points">
              <mxPoint x="165" y="870" />
              <mxPoint x="-210" y="870" />
            </Array>
          </mxGeometry>
        </mxCell>
        <mxCell id="Jx5n-4hsCiuhTFaqkO28-97" value="Remove Item" style="text;html=1;align=center;verticalAlign=middle;resizable=0;points=[];autosize=1;strokeColor=none;fillColor=none;container=0;" parent="1" vertex="1">
          <mxGeometry x="35" y="868" width="90" height="30" as="geometry" />
        </mxCell>
        <mxCell id="Jx5n-4hsCiuhTFaqkO28-98" style="edgeStyle=orthogonalEdgeStyle;rounded=0;orthogonalLoop=1;jettySize=auto;html=1;entryX=0.5;entryY=0;entryDx=0;entryDy=0;" parent="1" source="Jx5n-4hsCiuhTFaqkO28-7" target="Jx5n-4hsCiuhTFaqkO28-95" edge="1">
          <mxGeometry relative="1" as="geometry">
            <Array as="points">
              <mxPoint x="-210" y="530" />
            </Array>
          </mxGeometry>
        </mxCell>
        <mxCell id="Jx5n-4hsCiuhTFaqkO28-99" value="Remove Item" style="text;html=1;align=center;verticalAlign=middle;resizable=0;points=[];autosize=1;strokeColor=none;fillColor=none;container=0;" parent="1" vertex="1">
          <mxGeometry x="-67.5" y="500" width="90" height="30" as="geometry" />
        </mxCell>
        <mxCell id="Jx5n-4hsCiuhTFaqkO28-92" style="edgeStyle=orthogonalEdgeStyle;rounded=0;orthogonalLoop=1;jettySize=auto;html=1;entryX=1;entryY=1;entryDx=0;entryDy=0;exitX=0.426;exitY=0.155;exitDx=0;exitDy=0;exitPerimeter=0;" parent="1" source="Jx5n-4hsCiuhTFaqkO28-67" target="Jx5n-4hsCiuhTFaqkO28-76" edge="1">
          <mxGeometry relative="1" as="geometry">
            <mxPoint x="150" y="770" as="sourcePoint" />
            <Array as="points">
              <mxPoint x="150" y="776" />
              <mxPoint x="150" y="720" />
              <mxPoint x="6" y="720" />
            </Array>
          </mxGeometry>
        </mxCell>
      </root>
    </mxGraphModel>
  </diagram>
</mxfile>
